<svg width="230" height="241" viewBox="0 0 230 241" fill="none" xmlns="http://www.w3.org/2000/svg">
  <mask id="path-1-inside-1_3403_2118" fill="white">
    <path d="M48.763 -108.978C56.8165 43.2177 186.999 -22.2841 287.21 53.0715C329.278 84.6854 353.849 114.12 381.199 160.009V240.702C344.753 182.18 284.273 65.5149 177.84 38.4488C97.9683 18.1413 0.947266 15.7727 0.947266 -100.387V-108.978C11.6853 -108.946 33.035 -109.041 48.7314 -108.978"/>
  </mask>
  <path d="M287.21 53.0715L286.909 53.4711L286.91 53.4712L287.21 53.0715ZM381.199 160.009H381.699V159.872L381.629 159.753L381.199 160.009ZM381.199 240.702L380.775 240.967L381.699 242.451V240.702H381.199ZM177.84 38.4488L177.963 37.9642H177.963L177.84 38.4488ZM0.947266 -108.978L0.948736 -109.478L0.447266 -109.479V-108.978H0.947266ZM48.2637 -108.951C50.2808 -70.8316 59.9499 -46.2633 74.9553 -29.7111C89.9555 -13.1647 110.228 -4.69743 133.301 1.34551C144.838 4.36715 157.093 6.78687 169.752 9.30291C182.416 11.82 195.488 14.4342 208.683 17.8472C235.071 24.6723 261.928 34.686 286.909 53.4711L287.51 52.6718C262.386 33.7792 235.392 23.7223 208.934 16.8791C195.707 13.4579 182.608 10.8386 169.947 8.3221C157.281 5.80457 145.056 3.39071 133.554 0.378136C110.548 -5.64733 90.5018 -14.051 75.6962 -30.3828C60.8957 -46.7089 51.2719 -71.0261 49.2623 -109.004L48.2637 -108.951ZM286.91 53.4712C328.917 85.0397 353.447 114.422 380.77 160.265L381.629 159.753C354.251 113.818 329.638 84.3311 287.51 52.6718L286.91 53.4712ZM380.699 160.009V240.702H381.699V160.009H380.699ZM381.623 240.438C363.418 211.205 339.158 167.36 306.15 127.461C273.138 87.5573 231.326 51.5344 177.963 37.9642L177.717 38.9334C230.787 52.4293 272.431 88.2721 305.379 128.098C338.331 167.929 362.534 211.678 380.775 240.967L381.623 240.438ZM177.963 37.9642C167.97 35.4234 157.71 33.1636 147.413 30.9285C137.114 28.6928 126.779 26.4821 116.622 24.0373C96.3055 19.1473 76.7365 13.3285 59.6709 4.53101C42.6114 -4.2633 28.066 -16.0278 17.7811 -32.8062C7.49575 -49.5854 1.44727 -71.4179 1.44727 -100.387H0.447266C0.447266 -71.2768 6.52642 -49.2532 16.9285 -32.2836C27.331 -15.3133 42.0329 -3.43645 59.2127 5.41985C76.3863 14.273 96.0485 20.114 116.388 25.0096C126.558 27.4576 136.907 29.6711 147.201 31.9057C157.498 34.1409 167.742 36.3974 177.717 38.9334L177.963 37.9642ZM1.44727 -100.387V-108.978H0.447266V-100.387H1.44727ZM0.945795 -108.478C11.7014 -108.446 33.0219 -108.541 48.7294 -108.478L48.7334 -109.478C33.048 -109.541 11.6692 -109.446 0.948736 -109.478L0.945795 -108.478Z" fill="#1D4138" mask="url(#path-1-inside-1_3403_2118)"/>
</svg>